<svg width="21" height="21" viewBox="0 0 21 21" fill="none" xmlns="http://www.w3.org/2000/svg">
<g clip-path="url(#clip0_446_341)">
<g clip-path="url(#clip1_446_341)">
<path d="M10.9084 20.1858C13.5729 20.1858 16.1282 19.1274 18.0123 17.2433C19.8964 15.3592 20.9549 12.8038 20.9549 10.1393C20.9549 7.4748 19.8964 4.91943 18.0123 3.03534C16.1282 1.15124 13.5729 0.0927734 10.9084 0.0927734C8.24385 0.0927734 5.68847 1.15124 3.80438 3.03534C1.92029 4.91943 0.861816 7.4748 0.861816 10.1393C0.861816 12.8038 1.92029 15.3592 3.80438 17.2433C5.68847 19.1274 8.24385 20.1858 10.9084 20.1858ZM15.343 8.29483L10.3197 13.3181C9.95079 13.687 9.35428 13.687 8.98931 13.3181L6.47767 10.8065C6.10878 10.4376 6.10878 9.84105 6.47767 9.47608C6.84657 9.11111 7.44308 9.10719 7.80805 9.47608L9.65254 11.3206L14.0087 6.96052C14.3775 6.59163 14.9741 6.59163 15.339 6.96052C15.704 7.32942 15.7079 7.92593 15.339 8.2909L15.343 8.29483Z" fill="#374151"/>
</g>
</g>
<defs>
<clipPath id="clip0_446_341">
<rect width="20.0931" height="20.0931" fill="white" transform="translate(0.861816 0.0927734)"/>
</clipPath>
<clipPath id="clip1_446_341">
<path d="M0.861816 0.0927734H20.9549V20.1858H0.861816V0.0927734Z" fill="white"/>
</clipPath>
</defs>
</svg>
