<svg width="26" height="21" viewBox="0 0 26 21" fill="none" xmlns="http://www.w3.org/2000/svg">
<g clip-path="url(#clip0_446_333)">
<g clip-path="url(#clip1_446_333)">
<path d="M9.18623 0.0927734C10.5185 0.0927734 11.7962 0.622009 12.7382 1.56405C13.6803 2.5061 14.2095 3.78379 14.2095 5.11604C14.2095 6.4483 13.6803 7.72598 12.7382 8.66803C11.7962 9.61007 10.5185 10.1393 9.18623 10.1393C7.85397 10.1393 6.57629 9.61007 5.63424 8.66803C4.69219 7.72598 4.16296 6.4483 4.16296 5.11604C4.16296 3.78379 4.69219 2.5061 5.63424 1.56405C6.57629 0.622009 7.85397 0.0927734 9.18623 0.0927734ZM7.39276 12.023H10.9797C11.7881 12.023 12.5652 12.1604 13.2873 12.4116C13.0714 13.0826 12.9537 13.793 12.9537 14.5347C12.9537 16.8697 14.1114 18.934 15.8892 20.1858H1.56106C0.917457 20.1858 0.395508 19.6639 0.395508 19.0203C0.395508 15.1547 3.5272 12.023 7.39276 12.023ZM14.2095 14.5347C14.2095 13.0359 14.8049 11.5985 15.8647 10.5387C16.9245 9.47888 18.3619 8.88349 19.8607 8.88349C21.3595 8.88349 22.7969 9.47888 23.8567 10.5387C24.9165 11.5985 25.5118 13.0359 25.5118 14.5347C25.5118 16.0335 24.9165 17.4709 23.8567 18.5307C22.7969 19.5905 21.3595 20.1858 19.8607 20.1858C18.3619 20.1858 16.9245 19.5905 15.8647 18.5307C14.8049 17.4709 14.2095 16.0335 14.2095 14.5347ZM19.8607 11.3951C19.5153 11.3951 19.2328 11.6777 19.2328 12.023V14.5347C19.2328 14.88 19.5153 15.1626 19.8607 15.1626H21.7444C22.0897 15.1626 22.3723 14.88 22.3723 14.5347C22.3723 14.1893 22.0897 13.9068 21.7444 13.9068H20.4886V12.023C20.4886 11.6777 20.206 11.3951 19.8607 11.3951Z" fill="#374151"/>
</g>
</g>
<defs>
<clipPath id="clip0_446_333">
<rect width="25.1163" height="20.0931" fill="white" transform="translate(0.395508 0.0927734)"/>
</clipPath>
<clipPath id="clip1_446_333">
<path d="M0.395508 0.0927734H25.5118V20.1858H0.395508V0.0927734Z" fill="white"/>
</clipPath>
</defs>
</svg>
