<svg width="21" height="21" viewBox="0 0 21 21" fill="none" xmlns="http://www.w3.org/2000/svg">
<g clip-path="url(#clip0_446_350)">
<path d="M10.3742 1.34863C10.9315 1.34863 11.4456 1.64296 11.7281 2.12567L20.2049 16.5676C20.4914 17.0542 20.4914 17.6546 20.2127 18.1413C19.9341 18.6279 19.4121 18.9301 18.851 18.9301H1.89742C1.33623 18.9301 0.814282 18.6279 0.535648 18.1413C0.257013 17.6546 0.260938 17.0503 0.543497 16.5676L9.02026 2.12567C9.30282 1.64296 9.81692 1.34863 10.3742 1.34863ZM10.3742 6.3719C9.85224 6.3719 9.43233 6.79182 9.43233 7.31376V11.7091C9.43233 12.2311 9.85224 12.651 10.3742 12.651C10.8961 12.651 11.3161 12.2311 11.3161 11.7091V7.31376C11.3161 6.79182 10.8961 6.3719 10.3742 6.3719ZM11.63 15.1626C11.63 14.8296 11.4977 14.5101 11.2622 14.2746C11.0267 14.0391 10.7073 13.9068 10.3742 13.9068C10.0411 13.9068 9.7217 14.0391 9.48619 14.2746C9.25068 14.5101 9.11837 14.8296 9.11837 15.1626C9.11837 15.4957 9.25068 15.8151 9.48619 16.0506C9.7217 16.2861 10.0411 16.4184 10.3742 16.4184C10.7073 16.4184 11.0267 16.2861 11.2622 16.0506C11.4977 15.8151 11.63 15.4957 11.63 15.1626Z" fill="#374151"/>
</g>
<defs>
<clipPath id="clip0_446_350">
<path d="M0.327637 0.0927734H20.4207V20.1858H0.327637V0.0927734Z" fill="white"/>
</clipPath>
</defs>
</svg>
