<svg width="15" height="18" viewBox="0 0 15 18" fill="none" xmlns="http://www.w3.org/2000/svg">
<path fill-rule="evenodd" clip-rule="evenodd" d="M1.0144 11.0403C1.12766 11.2627 1.35614 11.4027 1.60574 11.4027H6.25089V16.9327C6.25089 17.2201 6.43594 17.4749 6.70928 17.5637C6.98262 17.6526 7.2821 17.5554 7.45116 17.323L14.5295 7.59027C14.6763 7.38841 14.6974 7.12125 14.5842 6.89883C14.4709 6.67642 14.2424 6.53636 13.9928 6.53636H9.34767V1.00641C9.34767 0.718985 9.16262 0.464232 8.88929 0.375346C8.61595 0.286461 8.31646 0.383652 8.1474 0.616105L1.06906 10.3488C0.922259 10.5507 0.901137 10.8178 1.0144 11.0403ZM8.02048 3.04709V7.19996C8.02048 7.56645 8.31758 7.86355 8.68407 7.86355H12.6897L7.57808 14.892V10.7391C7.57808 10.3726 7.28098 10.0755 6.91449 10.0755H2.90888L8.02048 3.04709Z" fill="white"/>
</svg>
