<svg width="9" height="15" viewBox="0 0 9 15" fill="none" xmlns="http://www.w3.org/2000/svg">
<path d="M4.10677 14.3909V0.481817H4.99782V14.3909H4.10677ZM6.67669 4.93164C6.62598 4.45714 6.41227 4.08768 6.03557 3.82326C5.66249 3.55884 5.17712 3.42663 4.57946 3.42663C4.15929 3.42663 3.79889 3.49002 3.49825 3.6168C3.19761 3.74357 2.9676 3.91562 2.80823 4.13295C2.64885 4.35028 2.56735 4.5984 2.56373 4.87731C2.56373 5.10913 2.61625 5.31016 2.72129 5.4804C2.82996 5.65064 2.97666 5.79553 3.16139 5.91506C3.34612 6.03097 3.55077 6.12876 3.77534 6.20845C3.99992 6.28814 4.2263 6.35515 4.4545 6.40948L5.49768 6.67028C5.91785 6.76807 6.32172 6.90028 6.70929 7.0669C7.10048 7.23352 7.45002 7.44361 7.75791 7.69716C8.06941 7.95071 8.31572 8.25678 8.49683 8.61538C8.67793 8.97397 8.76849 9.39414 8.76849 9.87589C8.76849 10.5279 8.60187 11.102 8.26863 11.5982C7.93539 12.0908 7.45364 12.4766 6.82339 12.7555C6.19676 13.0308 5.43791 13.1684 4.54686 13.1684C3.68117 13.1684 2.92957 13.0344 2.29207 12.7664C1.65819 12.4983 1.16195 12.1071 0.80336 11.5928C0.448389 11.0784 0.256414 10.4518 0.227437 9.71289H2.21057C2.23955 10.1005 2.35908 10.4228 2.56916 10.68C2.77925 10.9372 3.05272 11.1292 3.38958 11.2559C3.73006 11.3827 4.11039 11.4461 4.53056 11.4461C4.96884 11.4461 5.35279 11.3809 5.68241 11.2505C6.01565 11.1165 6.27644 10.9317 6.4648 10.6963C6.65315 10.4572 6.74913 10.1783 6.75276 9.85959C6.74913 9.56982 6.66401 9.33075 6.49739 9.1424C6.33078 8.95043 6.09715 8.79105 5.79651 8.66428C5.49949 8.53388 5.15176 8.41797 4.75333 8.31655L3.48738 7.99055C2.57097 7.75511 1.84654 7.39833 1.31408 6.92021C0.78525 6.43846 0.520832 5.79915 0.520832 5.00227C0.520832 4.34666 0.698318 3.77255 1.05329 3.27994C1.41188 2.78732 1.89906 2.40518 2.51483 2.13352C3.1306 1.85824 3.82786 1.7206 4.60663 1.7206C5.39626 1.7206 6.08809 1.85824 6.68212 2.13352C7.27978 2.40518 7.74885 2.7837 8.08933 3.26907C8.42982 3.75082 8.60549 4.30501 8.61636 4.93164H6.67669Z" fill="#68676D"/>
</svg>
